<svg width="109" height="51" viewBox="0 0 109 51" fill="none" xmlns="http://www.w3.org/2000/svg">
<g filter="url(#filter0_d_13_2)">
<path d="M8.17045 35V8.81818H11.1875V18.483H11.4432C11.6648 18.142 11.9716 17.7074 12.3636 17.179C12.7642 16.642 13.3352 16.1648 14.0767 15.7472C14.8267 15.321 15.8409 15.108 17.1193 15.108C18.7727 15.108 20.2301 15.5213 21.4915 16.348C22.7528 17.1747 23.7372 18.3466 24.4446 19.8636C25.152 21.3807 25.5057 23.1705 25.5057 25.233C25.5057 27.3125 25.152 29.1151 24.4446 30.6406C23.7372 32.1577 22.7571 33.3338 21.5043 34.169C20.2514 34.9957 18.8068 35.4091 17.1705 35.4091C15.9091 35.4091 14.8991 35.2003 14.1406 34.7827C13.3821 34.3565 12.7983 33.875 12.3892 33.3381C11.9801 32.7926 11.6648 32.3409 11.4432 31.983H11.0852V35H8.17045ZM11.1364 25.1818C11.1364 26.6648 11.3537 27.973 11.7884 29.1065C12.223 30.2315 12.858 31.1136 13.6932 31.7528C14.5284 32.3835 15.5511 32.6989 16.7614 32.6989C18.0227 32.6989 19.0753 32.3665 19.919 31.7017C20.7713 31.0284 21.4105 30.125 21.8366 28.9915C22.2713 27.8494 22.4886 26.5795 22.4886 25.1818C22.4886 23.8011 22.2756 22.5568 21.8494 21.4489C21.4318 20.3324 20.7969 19.4503 19.9446 18.8026C19.1009 18.1463 18.0398 17.8182 16.7614 17.8182C15.5341 17.8182 14.5028 18.1293 13.6676 18.7514C12.8324 19.3651 12.2017 20.2259 11.7756 21.3338C11.3494 22.4332 11.1364 23.7159 11.1364 25.1818ZM43.1573 23.1875V35H40.1403V15.3636H43.055V18.4318H43.3107C43.771 17.4347 44.4698 16.6335 45.4073 16.0284C46.3448 15.4148 47.555 15.108 49.038 15.108C50.3675 15.108 51.5309 15.3807 52.5281 15.9261C53.5252 16.4631 54.3008 17.2812 54.8548 18.3807C55.4087 19.4716 55.6857 20.8523 55.6857 22.5227V35H52.6687V22.7273C52.6687 21.1847 52.2681 19.983 51.467 19.1222C50.6658 18.2528 49.5664 17.8182 48.1687 17.8182C47.2056 17.8182 46.3448 18.027 45.5863 18.4446C44.8363 18.8622 44.244 19.4716 43.8093 20.2727C43.3746 21.0739 43.1573 22.0455 43.1573 23.1875ZM69.125 42.7727C67.6676 42.7727 66.4148 42.5852 65.3665 42.2102C64.3182 41.8438 63.4446 41.358 62.7457 40.7528C62.0554 40.1563 61.5057 39.517 61.0966 38.8352L63.5 37.1477C63.7727 37.5057 64.1179 37.9148 64.5355 38.375C64.9531 38.8438 65.5241 39.2486 66.2486 39.5895C66.9815 39.9389 67.9403 40.1136 69.125 40.1136C70.7102 40.1136 72.0185 39.7301 73.0497 38.9631C74.081 38.196 74.5966 36.9943 74.5966 35.358V31.3693H74.3409C74.1193 31.7273 73.804 32.1705 73.3949 32.6989C72.9943 33.2188 72.4148 33.6832 71.6562 34.0923C70.9062 34.4929 69.892 34.6932 68.6136 34.6932C67.0284 34.6932 65.6051 34.3182 64.3438 33.5682C63.0909 32.8182 62.098 31.7273 61.3651 30.2955C60.6406 28.8636 60.2784 27.125 60.2784 25.0795C60.2784 23.0682 60.6321 21.3168 61.3395 19.8253C62.0469 18.3253 63.0313 17.1662 64.2926 16.348C65.554 15.5213 67.0114 15.108 68.6648 15.108C69.9432 15.108 70.9574 15.321 71.7074 15.7472C72.4659 16.1648 73.0455 16.642 73.446 17.179C73.8551 17.7074 74.1705 18.142 74.392 18.483H74.6989V15.3636H77.6136V35.5625C77.6136 37.25 77.2301 38.6222 76.4631 39.679C75.7045 40.7443 74.6818 41.5241 73.3949 42.0185C72.1165 42.5213 70.6932 42.7727 69.125 42.7727ZM69.0227 31.983C70.233 31.983 71.2557 31.706 72.0909 31.152C72.9261 30.598 73.5611 29.8011 73.9957 28.7614C74.4304 27.7216 74.6477 26.4773 74.6477 25.0284C74.6477 23.6136 74.4347 22.3651 74.0085 21.2827C73.5824 20.2003 72.9517 19.3523 72.1165 18.7386C71.2813 18.125 70.25 17.8182 69.0227 17.8182C67.7443 17.8182 66.679 18.142 65.8267 18.7898C64.983 19.4375 64.348 20.3068 63.9219 21.3977C63.5043 22.4886 63.2955 23.6989 63.2955 25.0284C63.2955 26.392 63.5085 27.598 63.9347 28.6463C64.3693 29.6861 65.0085 30.5043 65.8523 31.1009C66.7045 31.6889 67.7614 31.983 69.0227 31.983Z" fill="white"/>
<path d="M34.1094 8.81818L33.8537 27.6364H30.8878L30.6321 8.81818H34.1094ZM32.3707 35.2045C31.7401 35.2045 31.1989 34.9787 30.7472 34.527C30.2955 34.0753 30.0696 33.5341 30.0696 32.9034C30.0696 32.2727 30.2955 31.7315 30.7472 31.2798C31.1989 30.8281 31.7401 30.6023 32.3707 30.6023C33.0014 30.6023 33.5426 30.8281 33.9943 31.2798C34.446 31.7315 34.6719 32.2727 34.6719 32.9034C34.6719 33.321 34.5653 33.7045 34.3523 34.054C34.1477 34.4034 33.8707 34.6847 33.5213 34.8977C33.1804 35.1023 32.7969 35.2045 32.3707 35.2045Z" fill="#2E99F1"/>
<path d="M91.625 35.358C89.6989 35.358 88.0582 34.8338 86.7031 33.7855C85.348 32.7287 84.3125 31.1989 83.5966 29.196C82.8807 27.1847 82.5227 24.7557 82.5227 21.9091C82.5227 19.0795 82.8807 16.6634 83.5966 14.6605C84.321 12.6491 85.3608 11.1151 86.7159 10.0582C88.0795 8.9929 89.7159 8.46023 91.625 8.46023C93.5341 8.46023 95.1662 8.9929 96.5213 10.0582C97.8849 11.1151 98.9247 12.6491 99.6406 14.6605C100.365 16.6634 100.727 19.0795 100.727 21.9091C100.727 24.7557 100.369 27.1847 99.6534 29.196C98.9375 31.1989 97.902 32.7287 96.5469 33.7855C95.1918 34.8338 93.5511 35.358 91.625 35.358ZM91.625 32.5455C93.5341 32.5455 95.017 31.625 96.0739 29.7841C97.1307 27.9432 97.6591 25.3182 97.6591 21.9091C97.6591 19.642 97.4162 17.7116 96.9304 16.1179C96.4531 14.5241 95.7628 13.3097 94.8594 12.4744C93.9645 11.6392 92.8864 11.2216 91.625 11.2216C89.733 11.2216 88.2543 12.1548 87.1889 14.0213C86.1236 15.8793 85.5909 18.5085 85.5909 21.9091C85.5909 24.1761 85.8295 26.1023 86.3068 27.6875C86.7841 29.2727 87.4702 30.4787 88.3651 31.3054C89.2685 32.1321 90.3551 32.5455 91.625 32.5455Z" fill="#2E99F1"/>
</g>
<defs>
<filter id="filter0_d_13_2" x="0.37041" y="0.66022" width="108.157" height="49.9125" filterUnits="userSpaceOnUse" color-interpolation-filters="sRGB">
<feFlood flood-opacity="0" result="BackgroundImageFix"/>
<feColorMatrix in="SourceAlpha" type="matrix" values="0 0 0 0 0 0 0 0 0 0 0 0 0 0 0 0 0 0 127 0" result="hardAlpha"/>
<feOffset/>
<feGaussianBlur stdDeviation="3.9"/>
<feComposite in2="hardAlpha" operator="out"/>
<feColorMatrix type="matrix" values="0 0 0 0 0 0 0 0 0 0 0 0 0 0 0 0 0 0 0.33 0"/>
<feBlend mode="normal" in2="BackgroundImageFix" result="effect1_dropShadow_13_2"/>
<feBlend mode="normal" in="SourceGraphic" in2="effect1_dropShadow_13_2" result="shape"/>
</filter>
</defs>
</svg>
